# xmcd CD database file
# Copyright (C) 1993-1998 Ti Kan
# 
# Track frame offsets:
#     187
#     19325
#     42717
#     61427
#     81272
#     97212
#     113110
#     126015
#     146160
#     161415
# 
# Disc length: 2441 seconds
# 
# Revision: 1
# Processed by: cddbd v1.4b41PL1 Copyright (c) Steve Scherf et al.
# Submitted via: DiscPlay 4.0.4
# 
DISCID=9109870a
DTITLE=Will T. Massey - Will T. Massey
DYEAR=1900
DGENRE=
TTITLE0=Ain't Here
TTITLE1=Send Up The Smoke
TTITLE2=It's Midnight All Day Long
TTITLE3=You Take The Town
TTITLE4=Barbed Wire Town
TTITLE5=Coffee Break
TTITLE6=Highway Hearse
TTITLE7=The Bravery To Weep
TTITLE8=Homeless Heart
TTITLE9=A Summertime Graveyard
EXTD=
EXTT0=
EXTT1=
EXTT2=
EXTT3=
EXTT4=
EXTT5=
EXTT6=
EXTT7=
EXTT8=
EXTT9=
PLAYORDER=
